<?xml version="1.0" standalone="no"?>
<!DOCTYPE svg PUBLIC "-//W3C//DTD SVG 20010904//EN"
 "http://www.w3.org/TR/2001/REC-SVG-20010904/DTD/svg10.dtd">
<svg version="1.0" xmlns="http://www.w3.org/2000/svg"
 width="300.000000pt" height="300.000000pt" viewBox="0 0 300.000000 300.000000"
 preserveAspectRatio="xMidYMid meet">
<metadata>
Created by potrace 1.11, written by Peter Selinger 2001-2013
</metadata>
<g transform="translate(0.000000,300.000000) scale(0.100000,-0.100000)"
fill="#000000" stroke="none">
<path d="M33 2993 c4 -7 -1 -14 -13 -18 -11 -3 -20 -11 -20 -16 0 -6 6 -7 12
-3 9 5 9 2 -1 -9 -9 -11 -10 -17 -2 -17 16 0 16 -2843 0 -2869 -10 -15 -8 -22
10 -40 11 -11 21 -17 21 -11 0 6 503 10 1451 10 825 0 1448 -4 1445 -9 -3 -4
10 -1 29 7 35 16 46 32 23 32 -9 0 -8 4 2 10 10 6 11 10 3 10 -18 0 -19 2841
-2 2869 10 15 8 22 -9 39 -12 12 -24 17 -27 12 -10 -16 -2894 -13 -2914 3 -10
8 -13 8 -8 0z"/>
</g>
</svg>
